<svg width="71" height="37" viewBox="0 0 71 37" fill="none" xmlns="http://www.w3.org/2000/svg">
<path d="M40.784 0C41.616 0 42.016 0.656 42.16 1.632V3.472C42.032 5.984 40.192 11.664 39.52 13.648C38.656 16.288 37.952 18.56 36.976 21.088C36.672 21.888 36.384 22.88 36.08 23.536C36.8 23.536 39.392 23.44 39.616 24.16C40.112 25.824 37.104 25.488 35.296 25.488C35.04 26.592 32.288 33.168 31.648 34.8C30.896 36.752 30.752 36.672 29.408 36.672C29.28 36.112 29.216 36.336 29.216 35.888C29.216 35.2 33.04 26.656 33.12 25.488C30.912 25.488 28.576 25.44 26.64 25.664C25.088 25.84 18.16 25.776 17.184 26.016C16.256 26.224 16.752 26 16.192 26.592C14.848 28.048 13.472 30.592 12.16 30.592C11.92 30.592 11.568 30.192 11.568 29.808C11.568 28.56 13.6 27.456 13.92 26.272C12.48 26.272 8.11203 27.024 6.35203 27.344C3.44003 27.856 3.00258e-05 29.392 3.00258e-05 27.856C3.00258e-05 26.464 1.72803 26.384 3.26403 26C20.16 21.744 10.656 28.096 23.088 15.84L30.24 8.096C32.576 5.76 37.568 0 40.784 0ZM39.92 2.048C39.744 2.048 39.52 2.192 39.264 2.368L35.632 5.248C29.44 10.704 23.984 17.6 18.624 23.92C19.936 23.616 20.88 23.824 22.368 23.744L33.92 23.536C34.384 22.672 34.8 21.328 35.168 20.272C36.528 16.224 39.952 7.056 40.176 2.88C40.208 2.256 40.112 2.048 39.92 2.048ZM41.0787 21.488C42.8707 21.296 43.9587 24.048 42.6627 25.472C41.3027 27.008 39.8147 26.064 39.4147 26.528C39.2867 26.672 38.9347 27.376 38.9507 27.856C39.0147 29.36 46.1347 24.544 46.8707 24.448C47.4947 24.352 48.1027 24.928 47.5427 25.68C45.5427 27.088 40.5027 30.304 38.3747 29.888C37.9587 29.808 37.6387 29.568 37.4307 29.2C36.5827 27.824 37.8307 25.104 38.9507 23.136C39.5267 22.128 40.1667 21.584 41.0787 21.488ZM40.9507 23.28C40.6467 23.632 39.7347 24.464 40.7267 24.592C41.8787 24.752 41.3507 23.312 40.9507 23.312V23.28ZM44.7847 27.168C45.2327 25.856 46.4967 20.288 48.1127 20.8C48.5927 20.96 48.8167 21.184 48.7687 21.488L48.6567 21.712C48.6247 21.808 48.6407 21.904 48.7047 22L48.7207 22.032C49.2007 22.96 51.4887 22.928 51.4087 24.224C51.3767 24.544 51.2327 24.816 50.9607 25.04C49.6967 26.048 48.9287 28.544 49.9687 27.808L54.8167 24.56C55.3607 24.336 55.7607 24.448 56.0007 24.88C56.2407 25.328 56.1287 25.696 55.6807 25.984C55.4887 26.128 54.7527 26.64 53.4727 27.552C52.2087 28.448 51.2007 29.232 50.3367 29.712C48.8167 30.576 47.9047 30.16 47.6007 28.224C47.4247 27.04 48.0487 25.904 48.8167 24.88C49.1687 24.448 47.8247 23.696 47.6167 24.336C47.2167 25.456 46.8807 28.208 45.3127 27.84C44.9287 27.744 44.6727 27.504 44.7847 27.168ZM57.8632 18.496C57.9432 18.352 58.0872 18.24 58.2472 18.16C58.4232 18.096 58.5832 18.08 58.7592 18.128C58.9992 18.224 59.1912 18.352 59.3832 18.496C59.6072 18.656 59.6552 18.88 59.5592 19.184C58.9032 20.96 57.1432 21.568 56.9992 20.24C56.9832 20.08 57.0152 19.904 57.1112 19.76C57.1912 19.6 57.3192 19.36 57.5112 19.072C57.6872 18.752 57.8152 18.576 57.8632 18.496ZM53.7192 25.904C53.7832 25.104 55.2552 22.8 55.9112 22.288C56.3912 21.92 56.7912 21.856 57.0952 22.128C57.9432 22.912 56.1192 23.968 55.6072 25.424C54.5512 28.48 59.6392 25.296 60.1352 24.672C60.5832 24.528 60.8712 24.624 61.0312 24.944C61.1912 25.264 61.1592 25.552 60.9512 25.824C59.6232 27.472 53.2232 31.232 53.7192 25.904ZM64.681 22.8C65.513 22.8 66.889 22.592 66.729 23.744L65.513 26.512C65.513 26.88 68.985 24.672 69.305 24.432C69.657 24.304 69.929 24.432 70.169 24.672C70.425 24.944 70.425 25.088 70.313 25.488C68.553 26.912 67.033 27.984 65.097 29.024C64.665 29.264 64.169 29.408 63.737 29.088C62.745 28.4 63.961 26.24 63.465 26.592C62.713 27.104 62.041 27.936 61.369 27.936C60.665 27.936 58.521 26.208 59.337 24.544C60.137 22.912 62.745 22.752 64.681 22.8ZM63.081 24.752C63.257 24.48 61.385 24.752 60.969 25.136C61.449 26.48 62.505 25.28 63.081 24.752Z" fill="#2A2A2A"/>
</svg>
